<?xml version="1.0" standalone="no"?>
<!DOCTYPE svg PUBLIC "-//W3C//DTD SVG 20010904//EN"
 "http://www.w3.org/TR/2001/REC-SVG-20010904/DTD/svg10.dtd">
<svg version="1.0" xmlns="http://www.w3.org/2000/svg"
 width="512.000000pt" height="512.000000pt" viewBox="0 0 512.000000 512.000000"
 preserveAspectRatio="xMidYMid meet">

<g transform="translate(0.000000,512.000000) scale(0.100000,-0.100000)"
fill="#000000" stroke="none">
<path d="M4210 1073 l0 -118 129 -163 c71 -89 134 -177 140 -194 24 -67 5
-147 -47 -201 -37 -38 -119 -62 -169 -48 -21 6 -42 11 -46 11 -4 0 -7 -35 -5
-77 l3 -77 44 -9 c53 -11 147 5 204 35 54 27 119 94 148 153 32 67 35 216 4
285 -16 37 -260 353 -377 488 l-28 33 0 -118z"/>
</g>
</svg>
